<svg width="108" height="108" viewBox="0 0 108 108" fill="none" xmlns="http://www.w3.org/2000/svg">
<path d="M28.6766 44.6341V62.8659C28.6766 63.6098 28.3821 64.3232 27.8578 64.8492C27.3336 65.3752 26.6225 65.6707 25.8811 65.6707C25.1397 65.6707 24.4287 65.3752 23.9045 64.8492C23.3802 64.3232 23.0857 63.6098 23.0857 62.8659V44.6341C23.0857 43.8902 23.3802 43.1768 23.9045 42.6508C24.4287 42.1248 25.1397 41.8293 25.8811 41.8293C26.6225 41.8293 27.3336 42.1248 27.8578 42.6508C28.3821 43.1768 28.6766 43.8902 28.6766 44.6341ZM39.8584 33.4146C39.117 33.4146 38.406 33.7101 37.8817 34.2362C37.3575 34.7622 37.063 35.4756 37.063 36.2195V71.2805C37.063 72.0244 37.3575 72.7378 37.8817 73.2638C38.406 73.7899 39.117 74.0854 39.8584 74.0854C40.5998 74.0854 41.3109 73.7899 41.8351 73.2638C42.3594 72.7378 42.6539 72.0244 42.6539 71.2805V36.2195C42.6539 35.4756 42.3594 34.7622 41.8351 34.2362C41.3109 33.7101 40.5998 33.4146 39.8584 33.4146ZM81.7902 41.8293C81.0488 41.8293 80.3378 42.1248 79.8135 42.6508C79.2893 43.1768 78.9948 43.8902 78.9948 44.6341V62.8659C78.9948 63.6098 79.2893 64.3232 79.8135 64.8492C80.3378 65.3752 81.0488 65.6707 81.7902 65.6707C82.5316 65.6707 83.2427 65.3752 83.7669 64.8492C84.2912 64.3232 84.5857 63.6098 84.5857 62.8659V44.6341C84.5857 43.8902 84.2912 43.1768 83.7669 42.6508C83.2427 42.1248 82.5316 41.8293 81.7902 41.8293ZM67.813 33.4146C67.0716 33.4146 66.3605 33.7101 65.8363 34.2362C65.312 34.7622 65.0175 35.4756 65.0175 36.2195V71.2805C65.0175 72.0244 65.312 72.7378 65.8363 73.2638C66.3605 73.7899 67.0716 74.0854 67.813 74.0854C68.5544 74.0854 69.2654 73.7899 69.7897 73.2638C70.3139 72.7378 70.6084 72.0244 70.6084 71.2805V36.2195C70.6084 35.4756 70.3139 34.7622 69.7897 34.2362C69.2654 33.7101 68.5544 33.4146 67.813 33.4146ZM53.8357 25C53.0943 25 52.3833 25.2955 51.859 25.8215C51.3348 26.3475 51.0402 27.061 51.0402 27.8049V79.6951C51.0402 80.439 51.3348 81.1525 51.859 81.6785C52.3833 82.2045 53.0943 82.5 53.8357 82.5C54.5771 82.5 55.2881 82.2045 55.8124 81.6785C56.3366 81.1525 56.6311 80.439 56.6311 79.6951V27.8049C56.6311 27.061 56.3366 26.3475 55.8124 25.8215C55.2881 25.2955 54.5771 25 53.8357 25Z" fill="black"/>
</svg>
