<svg width="54" height="93" viewBox="0 0 54 93" fill="none" xmlns="http://www.w3.org/2000/svg">
  <style>
    path { fill: #000000; }
    @media (prefers-color-scheme: dark) {
      path { fill: #ffffff; }
    }
  </style>
  <path fill-rule="evenodd" clip-rule="evenodd" d="M24.3544 46.5L1.56464 79.3854C0.629704 80.7309 0.112302 82.2395 0.0162806 83.7852C-0.0797976 85.3197 0.249092 86.8802 1.01037 88.3407C1.76792 89.7936 2.86173 90.9576 4.17737 91.7583C5.50398 92.5626 7.03389 93 8.65992 93H45.3401C46.9661 93 48.4959 92.5626 49.8226 91.7583C51.1382 90.9576 52.2284 89.7974 52.9896 88.3407C53.7509 86.8802 54.0761 85.3197 53.9837 83.7852C53.8876 82.2395 53.3666 80.7346 52.4354 79.3854L29.6457 46.5L52.4354 13.6146C53.3703 12.2691 53.8877 10.7605 53.9837 9.21485C54.0798 7.68028 53.7509 6.11979 52.9896 4.65933C52.2321 3.20636 51.1383 2.04243 49.8226 1.24174C48.496 0.437392 46.9661 0 45.3401 0H8.65992C7.03389 0 5.50407 0.437392 4.17737 1.24174C2.86183 2.04238 1.77163 3.20257 1.01037 4.65933C0.249111 6.11979 -0.0760514 7.68028 0.0162806 9.21485C0.112359 10.7605 0.633412 12.2654 1.56464 13.6146L24.3544 46.5Z"/>
</svg>
